<svg xmlns="http://www.w3.org/2000/svg" viewBox="0 0 1200 630" role="img" aria-labelledby="title desc">
  <title id="title">Chasing the Storm. The Arashi CLI</title>
  <desc id="desc">A dark blue title card with storm-like curved lines and the Arashi CLI article title.</desc>
  <defs>
    <linearGradient id="bg" x1="0" y1="0" x2="1" y2="1">
      <stop offset="0%" stop-color="#020617" />
      <stop offset="52%" stop-color="#0f172a" />
      <stop offset="100%" stop-color="#1e3a8a" />
    </linearGradient>
    <radialGradient id="eye" cx="58%" cy="45%" r="42%">
      <stop offset="0%" stop-color="#38bdf8" stop-opacity="0.28" />
      <stop offset="48%" stop-color="#2563eb" stop-opacity="0.12" />
      <stop offset="100%" stop-color="#020617" stop-opacity="0" />
    </radialGradient>
    <filter id="softGlow" x="-20%" y="-20%" width="140%" height="140%">
      <feGaussianBlur stdDeviation="6" result="blur" />
      <feMerge>
        <feMergeNode in="blur" />
        <feMergeNode in="SourceGraphic" />
      </feMerge>
    </filter>
  </defs>

  <rect width="1200" height="630" fill="url(#bg)" />
  <rect width="1200" height="630" fill="url(#eye)" />

  <g opacity="0.58" fill="none" stroke-linecap="round">
    <path d="M755 80C930 100 1060 205 1105 340C1014 258 895 234 755 265C610 297 496 282 410 220" stroke="#60a5fa" stroke-width="7" />
    <path d="M1040 443C880 545 675 548 517 445C411 376 296 365 174 410" stroke="#38bdf8" stroke-width="5" opacity="0.72" />
    <path d="M610 136C493 174 408 252 358 359C310 462 229 526 115 552" stroke="#93c5fd" stroke-width="4" opacity="0.5" />
    <path d="M880 178C769 155 658 184 570 260C493 327 402 350 297 327" stroke="#bfdbfe" stroke-width="3" opacity="0.5" />
  </g>

  <g filter="url(#softGlow)">
    <circle cx="725" cy="315" r="74" fill="none" stroke="#bfdbfe" stroke-width="5" opacity="0.68" />
    <circle cx="725" cy="315" r="24" fill="#e0f2fe" opacity="0.92" />
  </g>

  <g font-family="Inter, ui-sans-serif, system-ui, -apple-system, BlinkMacSystemFont, 'Segoe UI', sans-serif">
    <text x="76" y="112" fill="#93c5fd" font-size="28" font-weight="700" letter-spacing="6">ARASHI CLI</text>
    <text x="74" y="246" fill="#f8fafc" font-size="78" font-weight="800" letter-spacing="-3">Chasing the Storm.</text>
    <text x="78" y="335" fill="#f8fafc" font-size="66" font-weight="750" letter-spacing="-2">The Arashi CLI</text>
    <text x="80" y="422" fill="#cbd5e1" font-size="32" font-weight="500">Why Arashi makes sense in 2026</text>
    <text x="80" y="468" fill="#cbd5e1" font-size="32" font-weight="500">and how it came to be</text>
    <text x="82" y="552" fill="#7dd3fc" font-size="24" font-weight="650">corwin.dev/blog/arashi</text>
  </g>
</svg>
